<?xml version="1.0" encoding="UTF-8" standalone="no"?>
<!-- Created with Inkscape (http://www.inkscape.org/) -->

<svg
   width="210mm"
   height="297mm"
   viewBox="0 0 210 297"
   version="1.1"
   id="svg5"
   xml:space="preserve"
   inkscape:version="1.2.2 (732a01da63, 2022-12-09)"
   sodipodi:docname="tekening.svg"
   xmlns:inkscape="http://www.inkscape.org/namespaces/inkscape"
   xmlns:sodipodi="http://sodipodi.sourceforge.net/DTD/sodipodi-0.dtd"
   xmlns="http://www.w3.org/2000/svg"
   xmlns:svg="http://www.w3.org/2000/svg"><sodipodi:namedview
     id="namedview7"
     pagecolor="#505050"
     bordercolor="#ffffff"
     borderopacity="1"
     inkscape:showpageshadow="0"
     inkscape:pageopacity="0"
     inkscape:pagecheckerboard="1"
     inkscape:deskcolor="#505050"
     inkscape:document-units="mm"
     showgrid="false"
     showguides="true"
     inkscape:zoom="1.4770342"
     inkscape:cx="463.42866"
     inkscape:cy="527.06971"
     inkscape:window-width="1235"
     inkscape:window-height="1000"
     inkscape:window-x="-7"
     inkscape:window-y="0"
     inkscape:window-maximized="0"
     inkscape:current-layer="layer1"><inkscape:grid
       type="xygrid"
       id="grid1125" /></sodipodi:namedview><defs
     id="defs2"><inkscape:perspective
       sodipodi:type="inkscape:persp3d"
       inkscape:vp_x="-74.623803 : 121.31278 : 1"
       inkscape:vp_y="0 : 1028.4864 : 0"
       inkscape:vp_z="218.9966 : 121.31278 : 1"
       inkscape:persp3d-origin="72.186394 : 70.402717 : 1"
       id="perspective117" /></defs><g
     inkscape:label="Laag 1"
     inkscape:groupmode="layer"
     id="layer1"><text
       xml:space="preserve"
       style="font-size:3.175px;fill:#000000;stroke-width:0.264583"
       x="105.63868"
       y="86.89225"
       id="text409"><tspan
         sodipodi:role="line"
         id="tspan407"
         style="stroke-width:0.264583"></tspan></text><g
       id="svgGroup"
       stroke-linecap="round"
       fill-rule="evenodd"
       font-size="12px"
       stroke="#000"
       stroke-width="0.25mm"
       fill="none"
       style="fill:none;stroke:#000000;stroke-width:0.25mm"
       transform="translate(5.305,84.08837)"><path
         d="m 20.443,90.26 h 12.995 v 3 h 13.254 v -3 h 12.996 v 3 H 80.13 V 77.193 h -3 V 64.198 h 3 V 48.13 H 59.688 v 3 H 46.692 v -3 H 33.438 v 3 H 20.443 v -3 H 0 V 64.198 H 3 V 77.193 H 0 V 93.26 h 20.443 z"
         id="front_outsideCutPath"
         stroke="#FF0000"
         stroke-width="0.1"
         style="stroke:#ff0000;stroke-width:0.1"
         vector-effect="non-scaling-stroke" /><path
         d="m 93.321772,89.942627 h 12.995998 v 3 h 7.067 v -15.937 h 3 v -13.255 h -3 v -15.938 h -7.067 v 3 H 93.321772 v -3 h -7.067 v 15.938 h -3 v 13.255 h 3 v 15.937 h 7.067 z"
         id="left_outsideCutPath"
         stroke="#FF0000"
         stroke-width="0.1"
         style="stroke:#ff0000;stroke-width:0.1"
         vector-effect="non-scaling-stroke" /><path
         d="m 152.828,90.26 h 12.995 v 3 h 13.255 v -3 h 17.312 v -6.937 h 3 V 70.068 h -3 V 63.13 h -17.312 v -3 h -13.255 v 3 h -12.995 v -3 h -13.255 v 3 H 122.26 v 6.938 h -3 v 13.255 h 3 v 6.937 h 17.313 v 3 h 13.255 z"
         id="top_outsideCutPath"
         stroke="#FF0000"
         stroke-width="0.1"
         style="stroke:#ff0000;stroke-width:0.1"
         vector-effect="non-scaling-stroke" /><path
         d="m 20.443,42.13 h 12.995 v 3 h 13.254 v -3 h 12.996 v 3 H 80.13 V 29.063 h -3 V 16.067 h 3 V 0 H 59.688 V 3 H 46.692 V 0 H 33.438 V 3 H 20.443 V 0 H 0 V 16.067 H 3 V 29.063 H 0 V 45.13 h 20.443 z"
         id="back_outsideCutPath"
         stroke="#FF0000"
         stroke-width="0.1"
         style="stroke:#ff0000;stroke-width:0.1"
         vector-effect="non-scaling-stroke" /><path
         d="m 93.197,42.13 h 12.996 v 3 h 7.067 V 29.192 h 3 V 15.938 h -3 V 0 h -7.067 V 3 H 93.197 V 0 H 86.13 v 15.938 h -3 v 13.254 h 3 V 45.13 h 7.067 z"
         id="right_outsideCutPath"
         stroke="#FF0000"
         stroke-width="0.1"
         style="stroke:#ff0000;stroke-width:0.1"
         vector-effect="non-scaling-stroke" /><path
         d="m 152.828,54.13 h 12.995 v 3 h 13.255 v -3 h 17.312 v -6.938 h 3 V 33.938 h -3 V 27 h -17.312 v -3 h -13.255 v 3 h -12.995 v -3 h -6.6275 -6.6275 v 3 H 122.26 v 6.938 h -3 v 13.254 h 3 v 6.938 h 17.313 v 3 h 13.255 z"
         id="bottom_outsideCutPath"
         stroke="#FF0000"
         stroke-width="0.1"
         style="stroke:#ff0000;stroke-width:0.1"
         vector-effect="non-scaling-stroke"
         sodipodi:nodetypes="cccccccccccccccccccccccccccccc" /><rect
         style="fill:#000000;stroke:#0000ff;stroke-width:0.2;stroke-linejoin:bevel;stroke-dasharray:none;stroke-opacity:1"
         id="rect12683"
         width="17"
         height="18"
         x="90.318001"
         y="55.442631" /></g><rect
       style="fill:#000000;stroke:#0000ff;stroke-width:0.2;stroke-linejoin:bevel;stroke-dasharray:none;stroke-opacity:1"
       id="rect12641"
       width="13.2"
       height="12"
       x="138.16499"
       y="119.088" /><rect
       style="fill:#000000;stroke:#0000ff;stroke-width:0.2;stroke-linejoin:bevel;stroke-dasharray:none;stroke-opacity:1"
       id="rect12685"
       width="17"
       height="17"
       x="180.19501"
       y="117.218" /></g></svg>
